. 
  
http://www.torrenting.com/        :     Greatest Movie Tracker on The Net!!!
 
http://www.Torrenting.com          :     Once & For all ;)


               www . Torrenting . Com 

(((((((((((((= Enjoy No RAR releases =))))))))))))))))))))


...................................NFO:....................................

.                                                                                                     
       
     
     
       
       
     
     
                                         
                                         
                EXVID                    
                                         
         
                                         
         Filled the Archives             
                                         
         
                                         
                With:                    
                                         
         
                                         
                                    
     E240                           
                                    
     SP               (C) 2009      
                                         
     
     
     
                                                                                  
                                                                                   
               Mothers.Day.2010.FESTiVAL.DVDRip.XviD-EXViD                          
                                                                                   
                                                                                  
     
                                                                                               
EXViD aims to iNTERNAL those releases which have been lost in the archives.
EXViD aims to PRE non-internal releases which have poor sources and are likely skipped by others.
 
http://www.imdb.com/title/tt1434435/
Subtitles: NL
Date: 2011.08

Director: Darren Lynn Bousman

Genres: Crime | Horror | Thriller

Plot:
In the thriller arriving in theaters April 1, three brothers on the run from the law head for
home, only to discover that their mother lost the house in a foreclosure. Mother ingeniously
orchestrates her sons' escape, teaching the house's new owners and their guests a few lessons
along the way.

Cast:
Rebecca De Mornay 	 ... 	Natalie 'Mother' Koffin 
Jaime King 	 ... 	 Beth Sohapi 
Patrick John Flueger 	 ... 	Izaak 'Ike' Koffin (as Patrick Flueger) 
Warren Kole 	 ... 	Addley Koffin 
Deborah Ann Woll 	 ... 	 Lydia Koffin 
Briana Evigan 	 ... 	 Annette Langston 
Shawn Ashmore 	 ... 	 George Barnum 
Frank Grillo 	 ... 	 Daniel Sohapi 
Lisa Marcos 	 ... 	 Julie Ross 
Matt O'Leary 	 ... 	 Jonathan 'Johnny' Koffin 
Lyriq Bent 	 ... 	 Treshawn Jackson 
Tony Nappo 	 ... 	 Dave Lowe 
Kandyse McClure 	 ... 	 Gina Jackson 
Jessie Rusu 	 ... 	 Melissa McGuire 
Jason Wishnowski 	 ... 	 Charlie Kaufman

Stats:
Format                           : AVI
Format/Info                      : Audio Video Interleave
File size                        : 702 MiB
Duration                         : 1h 47mn
Overall bit rate                 : 911 Kbps
Writing application              : VirtualDubMod 1.5.10.2 (build 2540/release)
Writing library                  : VirtualDubMod build 2540/release

Video
ID                               : 0
Format                           : MPEG-4 Visual
Format profile                   : Advanced Simple@L5
Format settings, BVOP            : Yes
Format settings, QPel            : No
Format settings, GMC             : No warppoints
Format settings, Matrix          : Default (H.263)
Muxing mode                      : Packed bitstream
Codec ID                         : XVID
Codec ID/Hint                    : XviD
Duration                         : 1h 47mn
Bit rate                         : 769 Kbps
Width                            : 640 pixels
Height                           : 272 pixels
Display aspect ratio             : 2.35:1
Frame rate                       : 25.000 fps
Color space                      : YUV
Chroma subsampling               : 4:2:0
Bit depth                        : 8 bits
Scan type                        : Progressive
Bits/(Pixel*Frame)               : 0.177
Stream size                      : 592 MiB (84%)
Writing library                  : XviD 62

Audio
ID                               : 1
Format                           : MPEG Audio
Format version                   : Version 1
Format profile                   : Layer 3
Mode                             : Joint stereo
Mode extension                   : MS Stereo
Codec ID                         : 55
Codec ID/Hint                    : MP3
Duration                         : 1h 47mn
Bit rate mode                    : Variable
Bit rate                         : 128 Kbps
Channel(s)                       : 2 channels
Sampling rate                    : 48.0 KHz
Stream size                      : 99.5 MiB (14%)
Alignment                        : Aligned on interleaves
Interleave, duration             : 24 ms (0.60 video frame)
Interleave, preload duration     : 142 ms
Writing library                  : LAME3.90.
Encoding settings                : -m j -V 4 -q 2 -lowpass 17.6 --abr 128




Release notes:
enjoy!

Looking for:
75TB+ Archives
DUTCH/FLEMiSH Archives
                                                                                                    
Greets: CRBS EPiSODE FiCO FLS iLS KLASSiGER LiPSYNC MADE NODLABS RUNNER SPRiNTER      
   

                                                                    ASCII DONE BY XX^NFO 2oo9